<?xml version="1.0" encoding="UTF-8"?>
<svg width="24px" height="24px" viewBox="0 0 24 24" version="1.1" xmlns="http://www.w3.org/2000/svg">
    <g stroke="none" stroke-width="1" fill="none" fill-rule="evenodd">
        <path d="M21.5,2.5 L21.5,2.5 C22.3284271,2.5 23,3.17157288 23,4 L23,4 C23,4.82842712 22.3284271,5.5 21.5,5.5 L21.5,5.5 C20.6715729,5.5 20,4.82842712 20,4 L20,4 C20,3.17157288 20.6715729,2.5 21.5,2.5 Z" fill="#FFFFFF"/>
        <path d="M17.5,6.5 L17.5,6.5 C18.3284271,6.5 19,7.17157288 19,8 L19,8 C19,8.82842712 18.3284271,9.5 17.5,9.5 L17.5,9.5 C16.6715729,9.5 16,8.82842712 16,8 L16,8 C16,7.17157288 16.6715729,6.5 17.5,6.5 Z" fill="#FFFFFF"/>
        <path d="M13.5,10.5 L13.5,10.5 C14.3284271,10.5 15,11.1715729 15,12 L15,12 C15,12.8284271 14.3284271,13.5 13.5,13.5 L13.5,13.5 C12.6715729,13.5 12,12.8284271 12,12 L12,12 C12,11.1715729 12.6715729,10.5 13.5,10.5 Z" fill="#FFFFFF"/>
        <path d="M9.5,14.5 L9.5,14.5 C10.3284271,14.5 11,15.1715729 11,16 L11,16 C11,16.8284271 10.3284271,17.5 9.5,17.5 L9.5,17.5 C8.67157288,17.5 8,16.8284271 8,16 L8,16 C8,15.1715729 8.67157288,14.5 9.5,14.5 Z" fill="#FFFFFF"/>
        <path d="M5.5,18.5 L5.5,18.5 C6.32842712,18.5 7,19.1715729 7,20 L7,20 C7,20.8284271 6.32842712,21.5 5.5,21.5 L5.5,21.5 C4.67157288,21.5 4,20.8284271 4,20 L4,20 C4,19.1715729 4.67157288,18.5 5.5,18.5 Z" fill="#FFFFFF"/>
    </g>
</svg> 