<?xml version="1.0" encoding="UTF-8"?>
<svg width="24px" height="24px" viewBox="0 0 24 24" version="1.1" xmlns="http://www.w3.org/2000/svg">
    <g stroke="none" stroke-width="1" fill="none" fill-rule="evenodd">
        <path d="M1.5,3.5 L22.5,3.5 L22.5,20.5 L1.5,20.5 L1.5,3.5 Z M3.5,5.5 L3.5,18.5 L20.5,18.5 L20.5,5.5 L3.5,5.5 Z" fill="#FFFFFF"/>
        <path d="M5.5,7.5 L5.5,9.5 L7.5,9.5 L7.5,7.5 L5.5,7.5 Z" fill="#FFFFFF"/>
        <path d="M9.5,7.5 L9.5,9.5 L11.5,9.5 L11.5,7.5 L9.5,7.5 Z" fill="#FFFFFF"/>
        <path d="M13.5,7.5 L13.5,9.5 L15.5,9.5 L15.5,7.5 L13.5,7.5 Z" fill="#FFFFFF"/>
        <path d="M17.5,7.5 L17.5,9.5 L19.5,9.5 L19.5,7.5 L17.5,7.5 Z" fill="#FFFFFF"/>
        <path d="M5.5,11.5 L5.5,13.5 L7.5,13.5 L7.5,11.5 L5.5,11.5 Z" fill="#FFFFFF"/>
        <path d="M9.5,11.5 L9.5,13.5 L11.5,13.5 L11.5,11.5 L9.5,11.5 Z" fill="#FFFFFF"/>
        <path d="M13.5,11.5 L13.5,13.5 L15.5,13.5 L15.5,11.5 L13.5,11.5 Z" fill="#FFFFFF"/>
        <path d="M17.5,11.5 L17.5,13.5 L19.5,13.5 L19.5,11.5 L17.5,11.5 Z" fill="#FFFFFF"/>
        <path d="M5.5,15.5 L5.5,17.5 L7.5,17.5 L7.5,15.5 L5.5,15.5 Z" fill="#FFFFFF"/>
        <path d="M9.5,15.5 L9.5,17.5 L11.5,17.5 L11.5,15.5 L9.5,15.5 Z" fill="#FFFFFF"/>
        <path d="M13.5,15.5 L13.5,17.5 L15.5,17.5 L15.5,15.5 L13.5,15.5 Z" fill="#FFFFFF"/>
        <path d="M17.5,15.5 L17.5,17.5 L19.5,17.5 L19.5,15.5 L17.5,15.5 Z" fill="#FFFFFF"/>
    </g>
</svg> 