<?xml version="1.0" encoding="UTF-8"?>
<svg width="24px" height="24px" viewBox="0 0 24 24" version="1.1" xmlns="http://www.w3.org/2000/svg">
    <g stroke="none" stroke-width="1" fill="none" fill-rule="evenodd">
        <path d="M14.7,6.3 C14.7,6.3 14.7,6.3 14.7,6.3 C15.1,6.7 15.1,7.3 14.7,7.7 L7.7,14.7 C7.3,15.1 6.7,15.1 6.3,14.7 C6.3,14.7 6.3,14.7 6.3,14.7 C5.9,14.3 5.9,13.7 6.3,13.3 L13.3,6.3 C13.7,5.9 14.3,5.9 14.7,6.3 Z" fill="#FFFFFF"/>
        <path d="M17.7,3.3 C17.7,3.3 17.7,3.3 17.7,3.3 C18.1,3.7 18.1,4.3 17.7,4.7 L4.7,17.7 C4.3,18.1 3.7,18.1 3.3,17.7 C3.3,17.7 3.3,17.7 3.3,17.7 C2.9,17.3 2.9,16.7 3.3,16.3 L16.3,3.3 C16.7,2.9 17.3,2.9 17.7,3.3 Z" fill="#FFFFFF"/>
    </g>
</svg> 